<svg width="1180" height="181" viewBox="0 0 1180 181" fill="none" xmlns="http://www.w3.org/2000/svg">
<path d="M138.328 74.212C136.672 74.2223 135.336 75.5738 135.346 77.2306C135.355 78.8874 136.706 80.2222 138.363 80.2119L138.328 74.212ZM253.281 78.6171C254.445 77.4382 254.435 75.5387 253.256 74.3745L234.056 55.4019C232.878 54.2376 230.979 54.2495 229.814 55.4283C228.649 56.6072 228.66 58.5066 229.838 59.6709L246.905 76.5354L230.031 93.6115C228.866 94.7903 228.877 96.6898 230.055 97.854C231.233 99.0183 233.133 99.0065 234.298 97.8276L253.281 78.6171ZM138.363 80.2119L251.164 79.5089L251.13 73.509L138.328 74.212L138.363 80.2119Z" fill="#80BC00"/>
<path d="M508.428 78.6171C509.592 77.4382 509.582 75.5387 508.403 74.3745L489.203 55.4019C488.025 54.2376 486.126 54.2495 484.961 55.4283C483.796 56.6072 483.807 58.5066 484.985 59.6709L502.052 76.5354L485.178 93.6115C484.013 94.7903 484.024 96.6898 485.202 97.854C486.38 99.0183 488.28 99.0065 489.445 97.8276L508.428 78.6171ZM393.509 80.2119L506.311 79.5089L506.277 73.509L393.475 74.212L393.509 80.2119Z" fill="#80BC00"/>
<path d="M763.55 78.6432C764.728 77.4791 764.739 75.5796 763.574 74.4007L744.593 55.1887C743.428 54.0098 741.528 53.9978 740.35 55.162C739.172 56.3261 739.161 58.2256 740.326 59.4045L757.198 76.4818L740.13 93.3451C738.952 94.5093 738.941 96.4087 740.106 97.5877C741.271 98.7666 743.17 98.7786 744.349 97.6144L763.55 78.6432ZM649.965 78.8056L761.424 79.5085L761.458 73.5086L649.999 72.8057L649.965 78.8056Z" fill="#80BC00"/>
<path d="M1018.71 77.927C1019.88 76.7554 1019.88 74.8559 1018.71 73.6843L999.617 54.5925C998.446 53.4209 996.546 53.4209 995.374 54.5925C994.203 55.764 994.203 57.6635 995.374 58.8351L1012.35 75.8057L995.374 92.7762C994.203 93.9478 994.203 95.8473 995.374 97.0189C996.546 98.1904 998.446 98.1904 999.617 97.0189L1018.71 77.927ZM903.786 78.8057L1016.59 78.8057L1016.59 72.8057L903.786 72.8057L903.786 78.8057Z" fill="#80BC00"/>
<g filter="url(#filter0_d_272_784)">
<ellipse cx="79.1726" cy="76.5094" rx="71.1726" ry="74.5094" fill="white" shape-rendering="crispEdges"/>
<path d="M79.1726 152.019C119.075 152.019 151.345 118.168 151.345 76.5094C151.345 34.8504 119.075 1 79.1726 1C39.2701 1 7 34.8504 7 76.5094C7 118.168 39.2701 152.019 79.1726 152.019Z" stroke="#A4A0A0" stroke-opacity="0.6" stroke-width="2" shape-rendering="crispEdges"/>
</g>
<g filter="url(#filter1_d_272_784)">
<ellipse cx="334.319" cy="76.5094" rx="71.1726" ry="74.5094" fill="white" shape-rendering="crispEdges"/>
<path d="M334.319 152.019C374.222 152.019 406.492 118.168 406.492 76.5094C406.492 34.8504 374.222 1 334.319 1C294.417 1 262.146 34.8504 262.146 76.5094C262.146 118.168 294.417 152.019 334.319 152.019Z" stroke="#A4A0A0" stroke-opacity="0.6" stroke-width="2" shape-rendering="crispEdges"/>
</g>
<path d="M329.424 69.6279H331.865V79.1299C331.865 80.2106 331.631 81.1156 331.162 81.8447C330.693 82.5739 330.055 83.124 329.248 83.4951C328.447 83.8597 327.552 84.042 326.562 84.042C325.54 84.042 324.629 83.8597 323.828 83.4951C323.027 83.124 322.396 82.5739 321.934 81.8447C321.478 81.1156 321.25 80.2106 321.25 79.1299V69.6279H323.691V79.1299C323.691 79.8135 323.809 80.3766 324.043 80.8193C324.277 81.2555 324.609 81.5778 325.039 81.7861C325.469 81.9945 325.977 82.0986 326.562 82.0986C327.148 82.0986 327.653 81.9945 328.076 81.7861C328.506 81.5778 328.838 81.2555 329.072 80.8193C329.307 80.3766 329.424 79.8135 329.424 79.1299V69.6279ZM336.396 69.6279L339.414 74.8135L342.432 69.6279H345.254L340.957 76.6689L345.361 83.8467H342.51L339.414 78.5635L336.318 83.8467H333.457L337.871 76.6689L333.564 69.6279H336.396Z" fill="black"/>
<g filter="url(#filter2_d_272_784)">
<ellipse cx="589.466" cy="76.5094" rx="71.1726" ry="74.5094" fill="white" shape-rendering="crispEdges"/>
<path d="M589.467 152.019C629.369 152.019 661.639 118.168 661.639 76.5094C661.639 34.8504 629.369 1 589.467 1C549.564 1 517.294 34.8504 517.294 76.5094C517.294 118.168 549.564 152.019 589.467 152.019Z" stroke="#A4A0A0" stroke-opacity="0.6" stroke-width="2" shape-rendering="crispEdges"/>
</g>
<g filter="url(#filter3_d_272_784)">
<ellipse cx="844.613" cy="76.5094" rx="71.1726" ry="74.5094" fill="white" shape-rendering="crispEdges"/>
<path d="M844.613 152.019C884.516 152.019 916.786 118.168 916.786 76.5094C916.786 34.8504 884.516 1 844.613 1C804.711 1 772.441 34.8504 772.441 76.5094C772.441 118.168 804.711 152.019 844.613 152.019Z" stroke="#A4A0A0" stroke-opacity="0.6" stroke-width="2" shape-rendering="crispEdges"/>
</g>
<g filter="url(#filter4_d_272_784)">
<ellipse cx="1100.17" cy="76.5094" rx="71.1726" ry="74.5094" fill="white" shape-rendering="crispEdges"/>
<path d="M1100.17 152.019C1140.08 152.019 1172.35 118.168 1172.35 76.5094C1172.35 34.8504 1140.08 1 1100.17 1C1060.27 1 1028 34.8504 1028 76.5094C1028 118.168 1060.27 152.019 1100.17 152.019Z" stroke="#A4A0A0" stroke-opacity="0.6" stroke-width="2" shape-rendering="crispEdges"/>
</g>
<path d="M544.752 81.9033V83.8467H537.203V81.9033H544.752ZM537.896 69.6279V83.8467H535.445V69.6279H537.896ZM543.766 75.5654V77.4795H537.203V75.5654H543.766ZM544.703 69.6279V71.5811H537.203V69.6279H544.703ZM548.854 75.5361V83.8467H546.5V73.2803H548.717L548.854 75.5361ZM548.434 78.1729L547.672 78.1631C547.678 77.4144 547.783 76.7275 547.984 76.1025C548.193 75.4775 548.479 74.9404 548.844 74.4912C549.215 74.042 549.658 73.6969 550.172 73.4561C550.686 73.2087 551.259 73.085 551.891 73.085C552.398 73.085 552.857 73.1566 553.268 73.2998C553.684 73.4365 554.039 73.6611 554.332 73.9736C554.632 74.2861 554.859 74.693 555.016 75.1943C555.172 75.6891 555.25 76.2979 555.25 77.0205V83.8467H552.887V77.0107C552.887 76.5029 552.812 76.1025 552.662 75.8096C552.519 75.5101 552.307 75.2985 552.027 75.1748C551.754 75.0446 551.412 74.9795 551.002 74.9795C550.598 74.9795 550.237 75.0641 549.918 75.2334C549.599 75.4027 549.329 75.6338 549.107 75.9268C548.893 76.2197 548.727 76.5583 548.609 76.9424C548.492 77.3265 548.434 77.7367 548.434 78.1729ZM564.42 73.2803H566.559V83.5537C566.559 84.5042 566.357 85.3115 565.953 85.9756C565.549 86.6396 564.986 87.1442 564.264 87.4893C563.541 87.8408 562.704 88.0166 561.754 88.0166C561.35 88.0166 560.901 87.958 560.406 87.8408C559.918 87.7236 559.443 87.5348 558.98 87.2744C558.525 87.0205 558.144 86.6852 557.838 86.2686L558.941 84.8818C559.319 85.3311 559.736 85.6598 560.191 85.8682C560.647 86.0765 561.126 86.1807 561.627 86.1807C562.167 86.1807 562.626 86.0798 563.004 85.8779C563.388 85.6826 563.684 85.3929 563.893 85.0088C564.101 84.6247 564.205 84.1559 564.205 83.6025V75.6729L564.42 73.2803ZM557.242 78.6807V78.4756C557.242 77.6748 557.34 76.9456 557.535 76.2881C557.73 75.624 558.01 75.0544 558.375 74.5791C558.74 74.0973 559.182 73.7295 559.703 73.4756C560.224 73.2152 560.813 73.085 561.471 73.085C562.154 73.085 562.737 73.2087 563.219 73.4561C563.707 73.7035 564.114 74.0583 564.439 74.5205C564.765 74.9762 565.019 75.5231 565.201 76.1611C565.39 76.7926 565.53 77.4958 565.621 78.2705V78.9248C565.536 79.68 565.393 80.3701 565.191 80.9951C564.99 81.6201 564.723 82.1605 564.391 82.6162C564.059 83.0719 563.648 83.4235 563.16 83.6709C562.678 83.9183 562.109 84.042 561.451 84.042C560.807 84.042 560.224 83.9085 559.703 83.6416C559.189 83.3747 558.746 83.0003 558.375 82.5186C558.01 82.0368 557.73 81.4704 557.535 80.8193C557.34 80.1618 557.242 79.4489 557.242 78.6807ZM559.596 78.4756V78.6807C559.596 79.1624 559.641 79.6117 559.732 80.0283C559.83 80.445 559.977 80.8128 560.172 81.1318C560.374 81.4443 560.628 81.6917 560.934 81.874C561.246 82.0498 561.614 82.1377 562.037 82.1377C562.59 82.1377 563.043 82.0205 563.395 81.7861C563.753 81.5518 564.026 81.236 564.215 80.8389C564.41 80.4352 564.547 79.986 564.625 79.4912V77.7236C564.586 77.3395 564.505 76.9814 564.381 76.6494C564.264 76.3174 564.104 76.0277 563.902 75.7803C563.701 75.5264 563.447 75.3311 563.141 75.1943C562.835 75.0511 562.473 74.9795 562.057 74.9795C561.633 74.9795 561.266 75.0706 560.953 75.2529C560.641 75.4352 560.383 75.6859 560.182 76.0049C559.986 76.3239 559.84 76.695 559.742 77.1182C559.645 77.5413 559.596 77.9938 559.596 78.4756ZM571.52 73.2803V83.8467H569.156V73.2803H571.52ZM569 70.5068C569 70.1488 569.117 69.8525 569.352 69.6182C569.592 69.3773 569.924 69.2568 570.348 69.2568C570.764 69.2568 571.093 69.3773 571.334 69.6182C571.575 69.8525 571.695 70.1488 571.695 70.5068C571.695 70.8584 571.575 71.1514 571.334 71.3857C571.093 71.6201 570.764 71.7373 570.348 71.7373C569.924 71.7373 569.592 71.6201 569.352 71.3857C569.117 71.1514 569 70.8584 569 70.5068ZM576.432 75.5361V83.8467H574.078V73.2803H576.295L576.432 75.5361ZM576.012 78.1729L575.25 78.1631C575.257 77.4144 575.361 76.7275 575.562 76.1025C575.771 75.4775 576.057 74.9404 576.422 74.4912C576.793 74.042 577.236 73.6969 577.75 73.4561C578.264 73.2087 578.837 73.085 579.469 73.085C579.977 73.085 580.436 73.1566 580.846 73.2998C581.262 73.4365 581.617 73.6611 581.91 73.9736C582.21 74.2861 582.438 74.693 582.594 75.1943C582.75 75.6891 582.828 76.2979 582.828 77.0205V83.8467H580.465V77.0107C580.465 76.5029 580.39 76.1025 580.24 75.8096C580.097 75.5101 579.885 75.2985 579.605 75.1748C579.332 75.0446 578.99 74.9795 578.58 74.9795C578.176 74.9795 577.815 75.0641 577.496 75.2334C577.177 75.4027 576.907 75.6338 576.686 75.9268C576.471 76.2197 576.305 76.5583 576.188 76.9424C576.07 77.3265 576.012 77.7367 576.012 78.1729ZM589.889 84.042C589.107 84.042 588.401 83.915 587.77 83.6611C587.145 83.4007 586.611 83.0394 586.168 82.5771C585.732 82.1149 585.396 81.5713 585.162 80.9463C584.928 80.3213 584.811 79.6475 584.811 78.9248V78.5342C584.811 77.7074 584.931 76.9587 585.172 76.2881C585.413 75.6175 585.748 75.0446 586.178 74.5693C586.607 74.0876 587.115 73.7197 587.701 73.4658C588.287 73.2119 588.922 73.085 589.605 73.085C590.361 73.085 591.021 73.2119 591.588 73.4658C592.154 73.7197 592.623 74.0778 592.994 74.54C593.372 74.9958 593.652 75.5394 593.834 76.1709C594.023 76.8024 594.117 77.499 594.117 78.2607V79.2666H585.953V77.5771H591.793V77.3916C591.78 76.9684 591.695 76.5713 591.539 76.2002C591.389 75.8291 591.158 75.5296 590.846 75.3018C590.533 75.0739 590.117 74.96 589.596 74.96C589.205 74.96 588.857 75.0446 588.551 75.2139C588.251 75.3766 588.001 75.6143 587.799 75.9268C587.597 76.2393 587.441 76.6169 587.33 77.0596C587.226 77.4958 587.174 77.9873 587.174 78.5342V78.9248C587.174 79.387 587.236 79.8167 587.359 80.2139C587.49 80.6045 587.678 80.9463 587.926 81.2393C588.173 81.5322 588.473 81.7633 588.824 81.9326C589.176 82.0954 589.576 82.1768 590.025 82.1768C590.592 82.1768 591.096 82.0628 591.539 81.835C591.982 81.6071 592.366 81.2848 592.691 80.8682L593.932 82.0693C593.704 82.4014 593.408 82.7204 593.043 83.0264C592.678 83.3258 592.232 83.57 591.705 83.7588C591.184 83.9476 590.579 84.042 589.889 84.042ZM600.611 84.042C599.83 84.042 599.124 83.915 598.492 83.6611C597.867 83.4007 597.333 83.0394 596.891 82.5771C596.454 82.1149 596.119 81.5713 595.885 80.9463C595.65 80.3213 595.533 79.6475 595.533 78.9248V78.5342C595.533 77.7074 595.654 76.9587 595.895 76.2881C596.135 75.6175 596.471 75.0446 596.9 74.5693C597.33 74.0876 597.838 73.7197 598.424 73.4658C599.01 73.2119 599.645 73.085 600.328 73.085C601.083 73.085 601.744 73.2119 602.311 73.4658C602.877 73.7197 603.346 74.0778 603.717 74.54C604.094 74.9958 604.374 75.5394 604.557 76.1709C604.745 76.8024 604.84 77.499 604.84 78.2607V79.2666H596.676V77.5771H602.516V77.3916C602.503 76.9684 602.418 76.5713 602.262 76.2002C602.112 75.8291 601.881 75.5296 601.568 75.3018C601.256 75.0739 600.839 74.96 600.318 74.96C599.928 74.96 599.579 75.0446 599.273 75.2139C598.974 75.3766 598.723 75.6143 598.521 75.9268C598.32 76.2393 598.163 76.6169 598.053 77.0596C597.949 77.4958 597.896 77.9873 597.896 78.5342V78.9248C597.896 79.387 597.958 79.8167 598.082 80.2139C598.212 80.6045 598.401 80.9463 598.648 81.2393C598.896 81.5322 599.195 81.7633 599.547 81.9326C599.898 82.0954 600.299 82.1768 600.748 82.1768C601.314 82.1768 601.819 82.0628 602.262 81.835C602.704 81.6071 603.089 81.2848 603.414 80.8682L604.654 82.0693C604.426 82.4014 604.13 82.7204 603.766 83.0264C603.401 83.3258 602.955 83.57 602.428 83.7588C601.907 83.9476 601.301 84.042 600.611 84.042ZM609.039 75.292V83.8467H606.686V73.2803H608.932L609.039 75.292ZM612.271 73.2119L612.252 75.3994C612.109 75.3734 611.952 75.3538 611.783 75.3408C611.62 75.3278 611.458 75.3213 611.295 75.3213C610.891 75.3213 610.536 75.3799 610.23 75.4971C609.924 75.6077 609.667 75.7705 609.459 75.9854C609.257 76.1937 609.101 76.4476 608.99 76.7471C608.88 77.0465 608.814 77.3818 608.795 77.7529L608.258 77.792C608.258 77.1279 608.323 76.5127 608.453 75.9463C608.583 75.3799 608.779 74.8818 609.039 74.4521C609.306 74.0225 609.638 73.6872 610.035 73.4463C610.439 73.2054 610.904 73.085 611.432 73.085C611.575 73.085 611.728 73.098 611.891 73.124C612.06 73.1501 612.187 73.1794 612.271 73.2119ZM616.266 73.2803V83.8467H613.902V73.2803H616.266ZM613.746 70.5068C613.746 70.1488 613.863 69.8525 614.098 69.6182C614.339 69.3773 614.671 69.2568 615.094 69.2568C615.51 69.2568 615.839 69.3773 616.08 69.6182C616.321 69.8525 616.441 70.1488 616.441 70.5068C616.441 70.8584 616.321 71.1514 616.08 71.3857C615.839 71.6201 615.51 71.7373 615.094 71.7373C614.671 71.7373 614.339 71.6201 614.098 71.3857C613.863 71.1514 613.746 70.8584 613.746 70.5068ZM621.178 75.5361V83.8467H618.824V73.2803H621.041L621.178 75.5361ZM620.758 78.1729L619.996 78.1631C620.003 77.4144 620.107 76.7275 620.309 76.1025C620.517 75.4775 620.803 74.9404 621.168 74.4912C621.539 74.042 621.982 73.6969 622.496 73.4561C623.01 73.2087 623.583 73.085 624.215 73.085C624.723 73.085 625.182 73.1566 625.592 73.2998C626.008 73.4365 626.363 73.6611 626.656 73.9736C626.956 74.2861 627.184 74.693 627.34 75.1943C627.496 75.6891 627.574 76.2979 627.574 77.0205V83.8467H625.211V77.0107C625.211 76.5029 625.136 76.1025 624.986 75.8096C624.843 75.5101 624.632 75.2985 624.352 75.1748C624.078 75.0446 623.736 74.9795 623.326 74.9795C622.923 74.9795 622.561 75.0641 622.242 75.2334C621.923 75.4027 621.653 75.6338 621.432 75.9268C621.217 76.2197 621.051 76.5583 620.934 76.9424C620.816 77.3265 620.758 77.7367 620.758 78.1729ZM636.744 73.2803H638.883V83.5537C638.883 84.5042 638.681 85.3115 638.277 85.9756C637.874 86.6396 637.311 87.1442 636.588 87.4893C635.865 87.8408 635.029 88.0166 634.078 88.0166C633.674 88.0166 633.225 87.958 632.73 87.8408C632.242 87.7236 631.767 87.5348 631.305 87.2744C630.849 87.0205 630.468 86.6852 630.162 86.2686L631.266 84.8818C631.643 85.3311 632.06 85.6598 632.516 85.8682C632.971 86.0765 633.45 86.1807 633.951 86.1807C634.492 86.1807 634.951 86.0798 635.328 85.8779C635.712 85.6826 636.008 85.3929 636.217 85.0088C636.425 84.6247 636.529 84.1559 636.529 83.6025V75.6729L636.744 73.2803ZM629.566 78.6807V78.4756C629.566 77.6748 629.664 76.9456 629.859 76.2881C630.055 75.624 630.335 75.0544 630.699 74.5791C631.064 74.0973 631.507 73.7295 632.027 73.4756C632.548 73.2152 633.137 73.085 633.795 73.085C634.479 73.085 635.061 73.2087 635.543 73.4561C636.031 73.7035 636.438 74.0583 636.764 74.5205C637.089 74.9762 637.343 75.5231 637.525 76.1611C637.714 76.7926 637.854 77.4958 637.945 78.2705V78.9248C637.861 79.68 637.717 80.3701 637.516 80.9951C637.314 81.6201 637.047 82.1605 636.715 82.6162C636.383 83.0719 635.973 83.4235 635.484 83.6709C635.003 83.9183 634.433 84.042 633.775 84.042C633.131 84.042 632.548 83.9085 632.027 83.6416C631.513 83.3747 631.07 83.0003 630.699 82.5186C630.335 82.0368 630.055 81.4704 629.859 80.8193C629.664 80.1618 629.566 79.4489 629.566 78.6807ZM631.92 78.4756V78.6807C631.92 79.1624 631.965 79.6117 632.057 80.0283C632.154 80.445 632.301 80.8128 632.496 81.1318C632.698 81.4443 632.952 81.6917 633.258 81.874C633.57 82.0498 633.938 82.1377 634.361 82.1377C634.915 82.1377 635.367 82.0205 635.719 81.7861C636.077 81.5518 636.35 81.236 636.539 80.8389C636.734 80.4352 636.871 79.986 636.949 79.4912V77.7236C636.91 77.3395 636.829 76.9814 636.705 76.6494C636.588 76.3174 636.428 76.0277 636.227 75.7803C636.025 75.5264 635.771 75.3311 635.465 75.1943C635.159 75.0511 634.798 74.9795 634.381 74.9795C633.958 74.9795 633.59 75.0706 633.277 75.2529C632.965 75.4352 632.708 75.6859 632.506 76.0049C632.311 76.3239 632.164 76.695 632.066 77.1182C631.969 77.5413 631.92 77.9938 631.92 78.4756Z" fill="black"/>
<path d="M838.975 80.9521L842.715 83.9209L841.123 85.3174L837.451 82.3779L838.975 80.9521ZM842.744 75.3467V76.1279C842.744 77.2021 842.604 78.1657 842.324 79.0186C842.044 79.8714 841.644 80.5973 841.123 81.1963C840.602 81.7952 839.98 82.2542 839.258 82.5732C838.535 82.8857 837.734 83.042 836.855 83.042C835.983 83.042 835.186 82.8857 834.463 82.5732C833.747 82.2542 833.125 81.7952 832.598 81.1963C832.07 80.5973 831.66 79.8714 831.367 79.0186C831.081 78.1657 830.938 77.2021 830.938 76.1279V75.3467C830.938 74.2725 831.081 73.3122 831.367 72.4658C831.654 71.613 832.057 70.887 832.578 70.2881C833.105 69.6826 833.727 69.2236 834.443 68.9111C835.166 68.5921 835.964 68.4326 836.836 68.4326C837.715 68.4326 838.516 68.5921 839.238 68.9111C839.967 69.2236 840.592 69.6826 841.113 70.2881C841.634 70.887 842.035 71.613 842.314 72.4658C842.601 73.3122 842.744 74.2725 842.744 75.3467ZM840.283 76.1279V75.3271C840.283 74.5329 840.205 73.833 840.049 73.2275C839.899 72.6156 839.674 72.1045 839.375 71.6943C839.082 71.2777 838.721 70.9652 838.291 70.7568C837.868 70.542 837.383 70.4346 836.836 70.4346C836.302 70.4346 835.824 70.542 835.4 70.7568C834.977 70.9652 834.616 71.2777 834.316 71.6943C834.017 72.1045 833.789 72.6156 833.633 73.2275C833.477 73.833 833.398 74.5329 833.398 75.3271V76.1279C833.398 76.9222 833.477 77.6253 833.633 78.2373C833.789 78.8493 834.017 79.3669 834.316 79.79C834.622 80.2067 834.987 80.5225 835.41 80.7373C835.84 80.9456 836.322 81.0498 836.855 81.0498C837.402 81.0498 837.887 80.9456 838.311 80.7373C838.734 80.5225 839.092 80.2067 839.385 79.79C839.678 79.3669 839.899 78.8493 840.049 78.2373C840.205 77.6253 840.283 76.9222 840.283 76.1279ZM850.771 70.5225L846.523 82.8467H843.955L849.307 68.6279H850.947L850.771 70.5225ZM854.326 82.8467L850.068 70.5225L849.883 68.6279H851.533L856.904 82.8467H854.326ZM854.121 77.5732V79.5166H846.387V77.5732H854.121Z" fill="black"/>
<path d="M1065.58 83.7549H1062.54L1062.56 81.8115H1065.58C1066.46 81.8115 1067.19 81.6195 1067.78 81.2354C1068.38 80.8512 1068.83 80.3011 1069.13 79.585C1069.44 78.8688 1069.59 78.016 1069.59 77.0264V76.2549C1069.59 75.4867 1069.5 74.8063 1069.33 74.2139C1069.16 73.6214 1068.9 73.1234 1068.56 72.7197C1068.23 72.3161 1067.82 72.0101 1067.33 71.8018C1066.85 71.5934 1066.3 71.4893 1065.66 71.4893H1062.48V69.5361H1065.66C1066.61 69.5361 1067.47 69.6956 1068.25 70.0146C1069.03 70.3271 1069.71 70.7796 1070.27 71.3721C1070.85 71.9645 1071.29 72.6742 1071.59 73.501C1071.9 74.3278 1072.05 75.2523 1072.05 76.2744V77.0264C1072.05 78.0485 1071.9 78.973 1071.59 79.7998C1071.29 80.6266 1070.85 81.3363 1070.27 81.9287C1069.7 82.5146 1069.02 82.9671 1068.22 83.2861C1067.43 83.5986 1066.55 83.7549 1065.58 83.7549ZM1063.9 69.5361V83.7549H1061.45V69.5361H1063.9ZM1078.94 83.9502C1078.15 83.9502 1077.45 83.8232 1076.82 83.5693C1076.19 83.3089 1075.66 82.9476 1075.21 82.4854C1074.78 82.0231 1074.44 81.4795 1074.21 80.8545C1073.97 80.2295 1073.86 79.5557 1073.86 78.833V78.4424C1073.86 77.6156 1073.98 76.8669 1074.22 76.1963C1074.46 75.5257 1074.79 74.9528 1075.22 74.4775C1075.65 73.9958 1076.16 73.6279 1076.75 73.374C1077.33 73.1201 1077.97 72.9932 1078.65 72.9932C1079.41 72.9932 1080.07 73.1201 1080.63 73.374C1081.2 73.6279 1081.67 73.986 1082.04 74.4482C1082.42 74.904 1082.7 75.4476 1082.88 76.0791C1083.07 76.7106 1083.16 77.4072 1083.16 78.1689V79.1748H1075V77.4854H1080.84V77.2998C1080.83 76.8766 1080.74 76.4795 1080.59 76.1084C1080.44 75.7373 1080.21 75.4378 1079.89 75.21C1079.58 74.9821 1079.16 74.8682 1078.64 74.8682C1078.25 74.8682 1077.9 74.9528 1077.6 75.1221C1077.3 75.2848 1077.05 75.5225 1076.85 75.835C1076.64 76.1475 1076.49 76.5251 1076.38 76.9678C1076.27 77.404 1076.22 77.8955 1076.22 78.4424V78.833C1076.22 79.2952 1076.28 79.7249 1076.41 80.1221C1076.54 80.5127 1076.73 80.8545 1076.97 81.1475C1077.22 81.4404 1077.52 81.6715 1077.87 81.8408C1078.22 82.0036 1078.62 82.085 1079.07 82.085C1079.64 82.085 1080.14 81.971 1080.59 81.7432C1081.03 81.5153 1081.41 81.193 1081.74 80.7764L1082.98 81.9775C1082.75 82.3096 1082.45 82.6286 1082.09 82.9346C1081.73 83.234 1081.28 83.4782 1080.75 83.667C1080.23 83.8558 1079.63 83.9502 1078.94 83.9502ZM1088.3 81.8896L1090.89 73.1885H1093.33L1089.66 83.7549H1088.13L1088.3 81.8896ZM1086.32 73.1885L1088.96 81.9287L1089.08 83.7549H1087.56L1083.87 73.1885H1086.32ZM1111.34 76.2549V77.0361C1111.34 78.1104 1111.2 79.0739 1110.92 79.9268C1110.64 80.7796 1110.24 81.5055 1109.72 82.1045C1109.2 82.7035 1108.58 83.1624 1107.86 83.4814C1107.14 83.7939 1106.34 83.9502 1105.46 83.9502C1104.59 83.9502 1103.79 83.7939 1103.07 83.4814C1102.35 83.1624 1101.73 82.7035 1101.2 82.1045C1100.67 81.5055 1100.26 80.7796 1099.97 79.9268C1099.68 79.0739 1099.54 78.1104 1099.54 77.0361V76.2549C1099.54 75.1807 1099.68 74.2204 1099.97 73.374C1100.26 72.5212 1100.66 71.7952 1101.18 71.1963C1101.71 70.5908 1102.33 70.1318 1103.05 69.8193C1103.77 69.5003 1104.57 69.3408 1105.44 69.3408C1106.32 69.3408 1107.12 69.5003 1107.84 69.8193C1108.56 70.1318 1109.19 70.5908 1109.71 71.1963C1110.23 71.7952 1110.63 72.5212 1110.91 73.374C1111.19 74.2204 1111.34 75.1807 1111.34 76.2549ZM1108.89 77.0361V76.2354C1108.89 75.4411 1108.81 74.7412 1108.65 74.1357C1108.5 73.5238 1108.28 73.0127 1107.98 72.6025C1107.69 72.1859 1107.32 71.8734 1106.89 71.665C1106.46 71.4502 1105.98 71.3428 1105.44 71.3428C1104.9 71.3428 1104.42 71.4502 1103.99 71.665C1103.57 71.8734 1103.21 72.1859 1102.91 72.6025C1102.62 73.0127 1102.39 73.5238 1102.24 74.1357C1102.08 74.7412 1102 75.4411 1102 76.2354V77.0361C1102 77.8304 1102.08 78.5335 1102.24 79.1455C1102.39 79.7575 1102.62 80.2751 1102.92 80.6982C1103.23 81.1149 1103.59 81.4307 1104.01 81.6455C1104.44 81.8538 1104.92 81.958 1105.46 81.958C1106.01 81.958 1106.49 81.8538 1106.91 81.6455C1107.34 81.4307 1107.7 81.1149 1107.99 80.6982C1108.28 80.2751 1108.5 79.7575 1108.65 79.1455C1108.81 78.5335 1108.89 77.8304 1108.89 77.0361ZM1115.92 75.2197V87.8174H1113.56V73.1885H1115.73L1115.92 75.2197ZM1122.8 78.374V78.5791C1122.8 79.3473 1122.71 80.0602 1122.53 80.7178C1122.35 81.3688 1122.09 81.9385 1121.74 82.4268C1121.39 82.9085 1120.97 83.2829 1120.46 83.5498C1119.95 83.8167 1119.37 83.9502 1118.7 83.9502C1118.04 83.9502 1117.47 83.8298 1116.97 83.5889C1116.48 83.3415 1116.07 82.9932 1115.73 82.5439C1115.39 82.0947 1115.12 81.5674 1114.91 80.9619C1114.71 80.3499 1114.57 79.6794 1114.48 78.9502V78.1592C1114.57 77.3844 1114.71 76.6813 1114.91 76.0498C1115.12 75.4183 1115.39 74.8747 1115.73 74.4189C1116.07 73.9632 1116.48 73.6117 1116.97 73.3643C1117.46 73.1169 1118.03 72.9932 1118.68 72.9932C1119.35 72.9932 1119.93 73.1234 1120.45 73.3838C1120.96 73.6377 1121.4 74.0023 1121.75 74.4775C1122.1 74.9463 1122.36 75.5127 1122.54 76.1768C1122.71 76.8343 1122.8 77.5667 1122.8 78.374ZM1120.45 78.5791V78.374C1120.45 77.8857 1120.4 77.4333 1120.31 77.0166C1120.22 76.5934 1120.08 76.2223 1119.88 75.9033C1119.69 75.5843 1119.44 75.3369 1119.13 75.1611C1118.83 74.9788 1118.47 74.8877 1118.05 74.8877C1117.63 74.8877 1117.27 74.9593 1116.97 75.1025C1116.67 75.2393 1116.42 75.4313 1116.22 75.6787C1116.02 75.9261 1115.86 76.2158 1115.75 76.5479C1115.64 76.8734 1115.56 77.2282 1115.52 77.6123V79.5068C1115.6 79.9756 1115.73 80.4053 1115.92 80.7959C1116.11 81.1865 1116.37 81.499 1116.72 81.7334C1117.07 81.9613 1117.52 82.0752 1118.07 82.0752C1118.49 82.0752 1118.85 81.984 1119.15 81.8018C1119.45 81.6195 1119.69 81.3688 1119.88 81.0498C1120.08 80.7243 1120.22 80.3499 1120.31 79.9268C1120.4 79.5036 1120.45 79.0544 1120.45 78.5791ZM1130.73 80.8936C1130.73 80.6592 1130.67 80.4476 1130.56 80.2588C1130.44 80.0635 1130.21 79.8877 1129.88 79.7314C1129.56 79.5752 1129.08 79.432 1128.44 79.3018C1127.88 79.1781 1127.36 79.0316 1126.89 78.8623C1126.43 78.6865 1126.04 78.4749 1125.7 78.2275C1125.37 77.9801 1125.11 77.6872 1124.93 77.3486C1124.75 77.0101 1124.66 76.6195 1124.66 76.1768C1124.66 75.7471 1124.75 75.3402 1124.94 74.9561C1125.13 74.5719 1125.4 74.2334 1125.75 73.9404C1126.1 73.6475 1126.53 73.4163 1127.03 73.2471C1127.54 73.0778 1128.11 72.9932 1128.73 72.9932C1129.62 72.9932 1130.37 73.1429 1131.01 73.4424C1131.64 73.7354 1132.13 74.1357 1132.47 74.6436C1132.81 75.1449 1132.98 75.7113 1132.98 76.3428H1130.62C1130.62 76.0628 1130.55 75.8024 1130.41 75.5615C1130.27 75.3141 1130.07 75.1156 1129.79 74.9658C1129.51 74.8096 1129.15 74.7314 1128.73 74.7314C1128.33 74.7314 1127.99 74.7965 1127.72 74.9268C1127.46 75.0505 1127.27 75.2132 1127.14 75.415C1127.01 75.6169 1126.95 75.8382 1126.95 76.0791C1126.95 76.2549 1126.99 76.4144 1127.05 76.5576C1127.12 76.6943 1127.24 76.8213 1127.4 76.9385C1127.57 77.0492 1127.79 77.1533 1128.07 77.251C1128.35 77.3486 1128.71 77.443 1129.14 77.5342C1129.95 77.7035 1130.64 77.9215 1131.22 78.1885C1131.81 78.4489 1132.26 78.7874 1132.57 79.2041C1132.88 79.6143 1133.04 80.1351 1133.04 80.7666C1133.04 81.2354 1132.94 81.665 1132.73 82.0557C1132.54 82.4398 1132.25 82.7751 1131.88 83.0615C1131.5 83.3415 1131.04 83.5596 1130.52 83.7158C1130 83.8721 1129.41 83.9502 1128.76 83.9502C1127.8 83.9502 1126.99 83.7809 1126.33 83.4424C1125.66 83.0973 1125.16 82.6579 1124.81 82.124C1124.48 81.5837 1124.31 81.0238 1124.31 80.4443H1126.58C1126.61 80.8805 1126.73 81.2288 1126.94 81.4893C1127.16 81.7432 1127.44 81.9287 1127.76 82.0459C1128.1 82.1566 1128.44 82.2119 1128.79 82.2119C1129.21 82.2119 1129.57 82.1566 1129.85 82.0459C1130.14 81.9287 1130.36 81.7725 1130.51 81.5771C1130.66 81.3753 1130.73 81.1475 1130.73 80.8936Z" fill="black"/>
<path d="M46.8457 78.5439H43.1445V76.6006H46.8457C47.4902 76.6006 48.0111 76.4964 48.4082 76.2881C48.8053 76.0798 49.0951 75.7933 49.2773 75.4287C49.4661 75.0576 49.5605 74.6344 49.5605 74.1592C49.5605 73.71 49.4661 73.29 49.2773 72.8994C49.0951 72.5023 48.8053 72.1833 48.4082 71.9424C48.0111 71.7015 47.4902 71.5811 46.8457 71.5811H43.8965V83.8467H41.4453V69.6279H46.8457C47.946 69.6279 48.8802 69.8232 49.6484 70.2139C50.4232 70.598 51.0124 71.1318 51.416 71.8154C51.8197 72.4925 52.0215 73.2673 52.0215 74.1396C52.0215 75.0576 51.8197 75.8454 51.416 76.5029C51.0124 77.1605 50.4232 77.665 49.6484 78.0166C48.8802 78.3682 47.946 78.5439 46.8457 78.5439ZM56.3477 75.292V83.8467H53.9941V73.2803H56.2402L56.3477 75.292ZM59.5801 73.2119L59.5605 75.3994C59.4173 75.3734 59.2611 75.3538 59.0918 75.3408C58.929 75.3278 58.7663 75.3213 58.6035 75.3213C58.1999 75.3213 57.8451 75.3799 57.5391 75.4971C57.2331 75.6077 56.9759 75.7705 56.7676 75.9854C56.5658 76.1937 56.4095 76.4476 56.2988 76.7471C56.1882 77.0465 56.123 77.3818 56.1035 77.7529L55.5664 77.792C55.5664 77.1279 55.6315 76.5127 55.7617 75.9463C55.8919 75.3799 56.0872 74.8818 56.3477 74.4521C56.6146 74.0225 56.9466 73.6872 57.3438 73.4463C57.7474 73.2054 58.2129 73.085 58.7402 73.085C58.8835 73.085 59.0365 73.098 59.1992 73.124C59.3685 73.1501 59.4954 73.1794 59.5801 73.2119ZM60.3516 78.6807V78.4561C60.3516 77.6943 60.4622 76.988 60.6836 76.3369C60.9049 75.6794 61.224 75.1097 61.6406 74.6279C62.0638 74.1396 62.5781 73.762 63.1836 73.4951C63.7956 73.2217 64.4857 73.085 65.2539 73.085C66.0286 73.085 66.7188 73.2217 67.3242 73.4951C67.9362 73.762 68.4538 74.1396 68.877 74.6279C69.3001 75.1097 69.6224 75.6794 69.8438 76.3369C70.0651 76.988 70.1758 77.6943 70.1758 78.4561V78.6807C70.1758 79.4424 70.0651 80.1488 69.8438 80.7998C69.6224 81.4508 69.3001 82.0205 68.877 82.5088C68.4538 82.9906 67.9395 83.3682 67.334 83.6416C66.7285 83.9085 66.0417 84.042 65.2734 84.042C64.4987 84.042 63.8053 83.9085 63.1934 83.6416C62.5879 83.3682 62.0736 82.9906 61.6504 82.5088C61.2272 82.0205 60.9049 81.4508 60.6836 80.7998C60.4622 80.1488 60.3516 79.4424 60.3516 78.6807ZM62.7051 78.4561V78.6807C62.7051 79.1559 62.7539 79.6051 62.8516 80.0283C62.9492 80.4515 63.1022 80.8226 63.3105 81.1416C63.5189 81.4606 63.7858 81.7113 64.1113 81.8936C64.4368 82.0758 64.8242 82.167 65.2734 82.167C65.7096 82.167 66.0872 82.0758 66.4062 81.8936C66.7318 81.7113 66.9987 81.4606 67.207 81.1416C67.4154 80.8226 67.5684 80.4515 67.666 80.0283C67.7702 79.6051 67.8223 79.1559 67.8223 78.6807V78.4561C67.8223 77.9873 67.7702 77.5446 67.666 77.1279C67.5684 76.7048 67.4121 76.3304 67.1973 76.0049C66.9889 75.6794 66.722 75.4255 66.3965 75.2432C66.0775 75.0544 65.6966 74.96 65.2539 74.96C64.8112 74.96 64.4271 75.0544 64.1016 75.2432C63.7826 75.4255 63.5189 75.6794 63.3105 76.0049C63.1022 76.3304 62.9492 76.7048 62.8516 77.1279C62.7539 77.5446 62.7051 77.9873 62.7051 78.4561ZM78.5938 81.6592V68.8467H80.957V83.8467H78.8184L78.5938 81.6592ZM71.7188 78.6807V78.4756C71.7188 77.6748 71.8132 76.9456 72.002 76.2881C72.1908 75.624 72.4642 75.0544 72.8223 74.5791C73.1803 74.0973 73.6165 73.7295 74.1309 73.4756C74.6452 73.2152 75.2246 73.085 75.8691 73.085C76.5072 73.085 77.0671 73.2087 77.5488 73.4561C78.0306 73.7035 78.4408 74.0583 78.7793 74.5205C79.1178 74.9762 79.388 75.5231 79.5898 76.1611C79.7917 76.7926 79.9349 77.4958 80.0195 78.2705V78.9248C79.9349 79.68 79.7917 80.3701 79.5898 80.9951C79.388 81.6201 79.1178 82.1605 78.7793 82.6162C78.4408 83.0719 78.0273 83.4235 77.5391 83.6709C77.0573 83.9183 76.4941 84.042 75.8496 84.042C75.2116 84.042 74.6354 83.9085 74.1211 83.6416C73.6133 83.3747 73.1803 83.0003 72.8223 82.5186C72.4642 82.0368 72.1908 81.4704 72.002 80.8193C71.8132 80.1618 71.7188 79.4489 71.7188 78.6807ZM74.0723 78.4756V78.6807C74.0723 79.1624 74.1146 79.6117 74.1992 80.0283C74.2904 80.445 74.4303 80.8128 74.6191 81.1318C74.8079 81.4443 75.0521 81.6917 75.3516 81.874C75.6576 82.0498 76.0221 82.1377 76.4453 82.1377C76.9792 82.1377 77.4186 82.0205 77.7637 81.7861C78.1087 81.5518 78.3789 81.236 78.5742 80.8389C78.776 80.4352 78.9128 79.986 78.9844 79.4912V77.7236C78.9453 77.3395 78.8639 76.9814 78.7402 76.6494C78.623 76.3174 78.4635 76.0277 78.2617 75.7803C78.0599 75.5264 77.8092 75.3311 77.5098 75.1943C77.2168 75.0511 76.8685 74.9795 76.4648 74.9795C76.0352 74.9795 75.6706 75.0706 75.3711 75.2529C75.0716 75.4352 74.8242 75.6859 74.6289 76.0049C74.4401 76.3239 74.3001 76.695 74.209 77.1182C74.1178 77.5413 74.0723 77.9938 74.0723 78.4756ZM89.7754 81.3564V73.2803H92.1387V83.8467H89.9121L89.7754 81.3564ZM90.1074 79.1592L90.8984 79.1396C90.8984 79.8493 90.8203 80.5036 90.6641 81.1025C90.5078 81.695 90.2669 82.2126 89.9414 82.6553C89.6159 83.0915 89.1992 83.4333 88.6914 83.6807C88.1836 83.9215 87.5749 84.042 86.8652 84.042C86.3509 84.042 85.8789 83.9671 85.4492 83.8174C85.0195 83.6676 84.6484 83.4365 84.3359 83.124C84.0299 82.8115 83.7923 82.4046 83.623 81.9033C83.4538 81.402 83.3691 80.8031 83.3691 80.1064V73.2803H85.7227V80.126C85.7227 80.5101 85.7682 80.8324 85.8594 81.0928C85.9505 81.3467 86.0742 81.5518 86.2305 81.708C86.3867 81.8643 86.569 81.9749 86.7773 82.04C86.9857 82.1051 87.207 82.1377 87.4414 82.1377C88.112 82.1377 88.6393 82.0075 89.0234 81.7471C89.4141 81.4801 89.6908 81.1221 89.8535 80.6729C90.0228 80.2236 90.1074 79.7191 90.1074 79.1592ZM98.8672 82.167C99.2513 82.167 99.5964 82.0921 99.9023 81.9424C100.215 81.7861 100.465 81.5713 100.654 81.2979C100.85 81.0244 100.957 80.7087 100.977 80.3506H103.193C103.18 81.0342 102.979 81.6559 102.588 82.2158C102.197 82.7757 101.68 83.2217 101.035 83.5537C100.391 83.8792 99.6777 84.042 98.8965 84.042C98.0892 84.042 97.3861 83.9053 96.7871 83.6318C96.1882 83.3519 95.6901 82.9678 95.293 82.4795C94.8958 81.9912 94.5964 81.4281 94.3945 80.79C94.1992 80.152 94.1016 79.4684 94.1016 78.7393V78.3975C94.1016 77.6683 94.1992 76.9847 94.3945 76.3467C94.5964 75.7021 94.8958 75.1357 95.293 74.6475C95.6901 74.1592 96.1882 73.7783 96.7871 73.5049C97.3861 73.2249 98.0859 73.085 98.8867 73.085C99.7331 73.085 100.475 73.2542 101.113 73.5928C101.751 73.9248 102.253 74.3903 102.617 74.9893C102.988 75.5817 103.18 76.2718 103.193 77.0596H100.977C100.957 76.6689 100.859 76.3174 100.684 76.0049C100.514 75.6859 100.273 75.432 99.9609 75.2432C99.6549 75.0544 99.2871 74.96 98.8574 74.96C98.3822 74.96 97.9883 75.0576 97.6758 75.2529C97.3633 75.4417 97.1191 75.7021 96.9434 76.0342C96.7676 76.3597 96.6406 76.7275 96.5625 77.1377C96.4909 77.5413 96.4551 77.9613 96.4551 78.3975V78.7393C96.4551 79.1755 96.4909 79.5986 96.5625 80.0088C96.6341 80.4189 96.7578 80.7868 96.9336 81.1123C97.1159 81.4313 97.3633 81.6885 97.6758 81.8838C97.9883 82.0726 98.3854 82.167 98.8672 82.167ZM109.844 73.2803V74.999H103.887V73.2803H109.844ZM105.605 70.6924H107.959V80.9268C107.959 81.2523 108.005 81.5029 108.096 81.6787C108.193 81.848 108.327 81.9619 108.496 82.0205C108.665 82.0791 108.864 82.1084 109.092 82.1084C109.255 82.1084 109.411 82.0986 109.561 82.0791C109.71 82.0596 109.831 82.04 109.922 82.0205L109.932 83.8174C109.736 83.876 109.508 83.9281 109.248 83.9736C108.994 84.0192 108.701 84.042 108.369 84.042C107.829 84.042 107.35 83.9476 106.934 83.7588C106.517 83.5635 106.191 83.2477 105.957 82.8115C105.723 82.3753 105.605 81.7959 105.605 81.0732V70.6924Z" fill="black"/>
<defs>
<filter id="filter0_d_272_784" x="0" y="0" width="158.345" height="180.019" filterUnits="userSpaceOnUse" color-interpolation-filters="sRGB">
<feFlood flood-opacity="0" result="BackgroundImageFix"/>
<feColorMatrix in="SourceAlpha" type="matrix" values="0 0 0 0 0 0 0 0 0 0 0 0 0 0 0 0 0 0 127 0" result="hardAlpha"/>
<feMorphology radius="10" operator="erode" in="SourceAlpha" result="effect1_dropShadow_272_784"/>
<feOffset dy="21"/>
<feGaussianBlur stdDeviation="8"/>
<feComposite in2="hardAlpha" operator="out"/>
<feColorMatrix type="matrix" values="0 0 0 0 0 0 0 0 0 0 0 0 0 0 0 0 0 0 0.15 0"/>
<feBlend mode="normal" in2="BackgroundImageFix" result="effect1_dropShadow_272_784"/>
<feBlend mode="normal" in="SourceGraphic" in2="effect1_dropShadow_272_784" result="shape"/>
</filter>
<filter id="filter1_d_272_784" x="255.146" y="0" width="158.345" height="180.019" filterUnits="userSpaceOnUse" color-interpolation-filters="sRGB">
<feFlood flood-opacity="0" result="BackgroundImageFix"/>
<feColorMatrix in="SourceAlpha" type="matrix" values="0 0 0 0 0 0 0 0 0 0 0 0 0 0 0 0 0 0 127 0" result="hardAlpha"/>
<feMorphology radius="10" operator="erode" in="SourceAlpha" result="effect1_dropShadow_272_784"/>
<feOffset dy="21"/>
<feGaussianBlur stdDeviation="8"/>
<feComposite in2="hardAlpha" operator="out"/>
<feColorMatrix type="matrix" values="0 0 0 0 0 0 0 0 0 0 0 0 0 0 0 0 0 0 0.15 0"/>
<feBlend mode="normal" in2="BackgroundImageFix" result="effect1_dropShadow_272_784"/>
<feBlend mode="normal" in="SourceGraphic" in2="effect1_dropShadow_272_784" result="shape"/>
</filter>
<filter id="filter2_d_272_784" x="510.294" y="0" width="158.345" height="180.019" filterUnits="userSpaceOnUse" color-interpolation-filters="sRGB">
<feFlood flood-opacity="0" result="BackgroundImageFix"/>
<feColorMatrix in="SourceAlpha" type="matrix" values="0 0 0 0 0 0 0 0 0 0 0 0 0 0 0 0 0 0 127 0" result="hardAlpha"/>
<feMorphology radius="10" operator="erode" in="SourceAlpha" result="effect1_dropShadow_272_784"/>
<feOffset dy="21"/>
<feGaussianBlur stdDeviation="8"/>
<feComposite in2="hardAlpha" operator="out"/>
<feColorMatrix type="matrix" values="0 0 0 0 0 0 0 0 0 0 0 0 0 0 0 0 0 0 0.15 0"/>
<feBlend mode="normal" in2="BackgroundImageFix" result="effect1_dropShadow_272_784"/>
<feBlend mode="normal" in="SourceGraphic" in2="effect1_dropShadow_272_784" result="shape"/>
</filter>
<filter id="filter3_d_272_784" x="765.441" y="0" width="158.345" height="180.019" filterUnits="userSpaceOnUse" color-interpolation-filters="sRGB">
<feFlood flood-opacity="0" result="BackgroundImageFix"/>
<feColorMatrix in="SourceAlpha" type="matrix" values="0 0 0 0 0 0 0 0 0 0 0 0 0 0 0 0 0 0 127 0" result="hardAlpha"/>
<feMorphology radius="10" operator="erode" in="SourceAlpha" result="effect1_dropShadow_272_784"/>
<feOffset dy="21"/>
<feGaussianBlur stdDeviation="8"/>
<feComposite in2="hardAlpha" operator="out"/>
<feColorMatrix type="matrix" values="0 0 0 0 0 0 0 0 0 0 0 0 0 0 0 0 0 0 0.15 0"/>
<feBlend mode="normal" in2="BackgroundImageFix" result="effect1_dropShadow_272_784"/>
<feBlend mode="normal" in="SourceGraphic" in2="effect1_dropShadow_272_784" result="shape"/>
</filter>
<filter id="filter4_d_272_784" x="1021" y="0" width="158.345" height="180.019" filterUnits="userSpaceOnUse" color-interpolation-filters="sRGB">
<feFlood flood-opacity="0" result="BackgroundImageFix"/>
<feColorMatrix in="SourceAlpha" type="matrix" values="0 0 0 0 0 0 0 0 0 0 0 0 0 0 0 0 0 0 127 0" result="hardAlpha"/>
<feMorphology radius="10" operator="erode" in="SourceAlpha" result="effect1_dropShadow_272_784"/>
<feOffset dy="21"/>
<feGaussianBlur stdDeviation="8"/>
<feComposite in2="hardAlpha" operator="out"/>
<feColorMatrix type="matrix" values="0 0 0 0 0 0 0 0 0 0 0 0 0 0 0 0 0 0 0.15 0"/>
<feBlend mode="normal" in2="BackgroundImageFix" result="effect1_dropShadow_272_784"/>
<feBlend mode="normal" in="SourceGraphic" in2="effect1_dropShadow_272_784" result="shape"/>
</filter>
</defs>
</svg>
