<svg width="229" height="100" viewBox="0 0 229 100" fill="none" xmlns="http://www.w3.org/2000/svg">
<path d="M52.1641 36.4134H61.4328C67.0665 20.8337 82.335 9.05773 100.329 9.05773C118.323 9.05773 133.954 20.8337 139.406 36.9571C141.043 36.594 142.496 36.4134 144.132 36.4134C145.585 36.4134 147.222 36.594 148.677 36.9571C147.767 33.5146 146.495 30.072 144.678 26.9926L142.133 26.2684L142.86 23.7326C139.044 17.5737 133.954 12.3196 127.775 8.33349L125.23 9.05773L124.504 6.33947C117.96 2.71638 110.509 0.541771 102.511 0.18059L100.693 1.99214L98.6945 0C90.5147 0.18059 82.6993 2.53579 75.7935 6.34135L75.4293 9.05961L73.0663 8.33537C66.8872 12.3215 61.797 17.5737 57.7996 23.915L58.3451 26.2702L55.9821 26.8139C54.3458 29.8933 53.0738 33.1553 52.1659 36.4153" fill="#404040"/>
<path d="M132.317 76.4492C124.683 85.6875 113.233 91.6658 100.329 91.6658C87.4251 91.6658 76.1558 85.8681 68.5215 76.8104C65.9774 78.4414 62.8878 79.3462 59.7964 79.7093C63.4314 84.6002 67.9761 88.9476 73.2456 92.2095L75.2442 91.6658L75.7897 93.658C82.5143 97.4617 90.1485 99.8169 98.5094 99.9993L99.9627 98.5508L101.416 99.9993C109.958 99.8187 117.773 97.6441 124.862 93.8404L125.408 91.6658L127.59 92.2095C132.861 88.9495 137.404 84.6002 141.039 79.7093C137.768 79.3462 134.86 78.0783 132.315 76.4492" fill="#404040"/>
<path d="M28.5346 49.0962L24.173 53.4435L21.9912 51.2689C20.1737 49.4573 17.8108 48.5506 15.2667 48.5506C12.9037 48.5506 10.5408 49.4573 8.54209 51.2689C6.72458 52.8998 5.81488 55.4356 5.81488 57.7908C5.81488 60.146 6.72458 62.5012 8.54209 64.4934C10.3596 66.3049 12.5414 67.2116 15.2667 67.2116C17.8108 67.2116 20.1737 66.3049 21.9912 64.4934L24.173 62.3188L28.5346 66.6661L26.3529 68.8407C23.2633 71.9201 19.264 73.3705 15.4479 73.3705C11.6317 73.3705 7.45121 71.922 4.54282 68.8407C1.45325 65.7631 0 61.9576 0 57.9733C0 53.989 1.45325 50.1835 4.54471 47.104C7.63428 44.0246 11.6335 42.5742 15.4497 42.5742C19.2659 42.5742 23.4464 44.0227 26.3548 47.104L28.5365 49.0962H28.5346Z" fill="#404040"/>
<path d="M37.622 30.0703H31.4429V73.5493H37.622V30.0703Z" fill="#404040"/>
<path d="M65.7945 42.3906H71.9737V57.7897C71.9737 61.9565 70.3374 65.9426 67.429 68.659C64.5206 71.5578 60.7044 73.1888 56.524 73.1888C52.3435 73.1888 48.3442 71.5578 45.6189 68.659C42.7105 65.7601 41.0742 61.9565 41.0742 57.7897V42.3906H47.2534V57.7897C47.2534 60.3255 48.3442 62.6807 49.9806 64.4922C51.6169 66.1232 53.9798 67.2105 56.524 67.2105C59.0681 67.2105 61.431 66.1232 63.2485 64.4922C64.8849 62.8613 65.9757 60.5061 65.9757 57.7897L65.7945 42.3906Z" fill="#404040"/>
<path d="M66.1588 36.0506C71.6113 23.1892 84.8793 13.2247 100.329 13.2247C115.779 13.2247 130.138 23.7328 135.045 38.0427C135.409 37.8621 135.953 37.6796 136.317 37.4991C131.229 22.6436 116.87 11.5938 100.329 11.5938C83.7884 11.5938 70.3393 21.9194 64.7056 35.6875L66.1588 36.0506Z" fill="#404040"/>
<path d="M75.4272 30.0703H81.6064V42.5705H91.0582C95.4198 42.5705 99.2379 44.2015 101.963 47.1004C104.689 49.9992 106.508 53.8029 106.508 57.9696C106.508 62.1364 104.872 66.1225 101.963 68.8389C99.0548 71.7378 95.2386 73.3687 91.0582 73.3687C86.8777 73.3687 82.8785 71.7378 80.1531 68.8389C77.2448 65.9401 75.6084 62.1364 75.6084 57.9696V30.0703H75.4272ZM81.6064 48.7294V57.9678C81.6064 60.5035 82.6973 62.8587 84.3336 64.6703C85.9699 66.3012 88.3329 67.3885 91.0582 67.3885C93.6023 67.3885 95.9652 66.3012 97.7827 64.6703C99.4191 63.0393 100.51 60.6841 100.51 57.9678C100.51 55.432 99.4191 53.0768 97.7827 51.2652C96.1464 49.6343 93.7835 48.547 91.0582 48.547H81.6064V48.7275V48.7294Z" fill="#404040"/>
<path d="M163.579 30.2539H169.758V42.7541H179.21C183.572 42.7541 187.39 44.3851 190.115 47.2839C192.842 50.1828 194.66 53.9865 194.66 58.1532C194.66 62.32 193.023 66.3061 190.115 69.0225C187.207 71.9214 183.39 73.5523 179.21 73.5523C175.03 73.5523 171.03 71.9214 168.305 69.0225C165.397 66.1237 163.76 62.32 163.76 58.1532V30.2539H163.579ZM169.758 48.7324V57.9708C169.758 60.5065 170.849 62.8617 172.485 64.6733C174.122 66.3042 176.485 67.3915 179.21 67.3915C181.754 67.3915 184.117 66.3042 185.935 64.6733C187.571 63.0423 188.662 60.6871 188.662 57.9708C188.662 55.435 187.571 53.0798 185.935 51.2682C184.298 49.6373 181.935 48.55 179.21 48.55H169.758V48.7306V48.7324Z" fill="#404040"/>
<path d="M125.955 30.0703H119.776V73.5493H125.955V30.0703Z" fill="#404040"/>
<path d="M160.307 73.5521H144.857C140.677 73.5521 136.677 71.9211 133.952 69.0223C131.044 66.1234 129.407 62.3197 129.407 58.153C129.407 53.9862 131.044 50.0001 133.952 47.2837C136.86 44.5655 140.677 42.7539 144.857 42.7539C149.037 42.7539 153.037 44.3849 155.762 47.2837C158.489 50.1826 160.307 53.9862 160.307 58.153V73.5521ZM154.128 67.3932V57.9724C154.128 55.4366 153.037 53.0814 151.4 51.2699C149.764 49.6389 147.401 48.5516 144.676 48.5516C142.132 48.5516 139.769 49.6389 137.951 51.2699C136.315 52.9008 135.224 55.256 135.224 57.9724C135.224 60.5082 136.315 62.8634 137.951 64.6749C139.588 66.3059 141.95 67.3932 144.676 67.3932H154.128Z" fill="#404040"/>
<path d="M225.012 42.5742V48.7331H206.292C204.655 48.7331 203.202 50.1816 203.202 51.8125C203.202 53.6241 204.655 55.0726 206.292 55.0726H218.833C221.377 55.0726 223.74 56.1599 225.558 57.7908C227.194 59.4218 228.285 61.777 228.285 64.3128C228.285 66.8486 227.194 69.2038 225.558 70.8347C223.921 72.4657 221.558 73.553 218.833 73.553H200.112V67.3941H218.833C220.65 67.3941 222.104 66.1262 222.104 64.1341C222.104 62.5031 220.832 61.0546 218.833 61.0546H206.292C203.747 61.0546 201.385 59.9673 199.748 58.3364C198.112 56.7054 197.021 54.3502 197.021 51.8144C197.021 49.2786 198.112 46.9234 199.748 45.2925C201.385 43.6615 203.747 42.5742 206.292 42.5742H225.012Z" fill="#404040"/>
<path d="M123.23 78.4429C116.868 83.5145 108.871 86.5958 100.148 86.5958C88.8786 86.5958 78.8833 81.5242 72.1568 73.7344C71.7925 74.0974 71.4302 74.4586 71.0659 74.6392C78.1548 82.7921 88.5143 88.0443 100.146 88.0443C109.779 88.0443 118.685 84.4212 125.41 78.4429H123.228H123.23Z" fill="#404040"/>
</svg>
